<?xml version="1.0" encoding="utf-8"?>
<!-- Generator: Adobe Illustrator 24.1.0, SVG Export Plug-In . SVG Version: 6.00 Build 0)  -->
<svg version="1.1" id="Layer_1" xmlns="http://www.w3.org/2000/svg" xmlns:xlink="http://www.w3.org/1999/xlink" x="0px" y="0px"
	 viewBox="0 0 24 24" style="enable-background:new 0 0 24 24;" xml:space="preserve">
<style type="text/css">
	.st0{fill-rule:evenodd;clip-rule:evenodd;fill:#016FFF;}
</style>
<path class="st0" d="M21.3,0H2.7C1.2,0,0,1.2,0,2.7v18.7C0,22.8,1.2,24,2.7,24h18.7c1.5,0,2.7-1.2,2.7-2.7V2.7C24,1.2,22.8,0,21.3,0
	z M7.3,19.3c0,0.4-0.3,0.7-0.7,0.7h-2C4.3,20,4,19.7,4,19.3V10c0-0.4,0.3-0.7,0.7-0.7h2c0.4,0,0.7,0.3,0.7,0.7V19.3z M5.6,8
	C4.5,8,3.7,7.1,3.7,6s0.8-2,1.9-2s2,0.9,2,2S6.8,8,5.6,8z M20,19.3c0,0.4-0.3,0.7-0.7,0.7h-2c-0.4,0-0.7-0.3-0.7-0.7v-5.1
	c0-1.1-0.9-2-2-2s-2,0.9-2,2v5.1c0,0.4-0.3,0.7-0.7,0.7h-2c-0.4,0-0.7-0.3-0.7-0.7V10c0-0.4,0.3-0.7,0.7-0.7h2
	c0.4,0,0.7,0.3,0.7,0.7v0.8c0.8-1.2,2.3-1.9,3.7-1.7c2.1,0.3,3.7,2.1,3.6,4.1V19.3z"/>
</svg>
